<mxfile host="app.diagrams.net" agent="Mozilla/5.0 (X11; Ubuntu; Linux x86_64; rv:139.0) Gecko/20100101 Firefox/139.0" version="27.1.5">
  <diagram name="Page-1" id="ariWhS4snwq5PhiXt2l8">
    <mxGraphModel dx="2146" dy="636" grid="1" gridSize="10" guides="1" tooltips="1" connect="1" arrows="1" fold="1" page="1" pageScale="1" pageWidth="850" pageHeight="1100" math="0" shadow="0">
      <root>
        <mxCell id="0" />
        <mxCell id="1" parent="0" />
        <mxCell id="fuXMZ4NcPsIUFkVtj4bJ-1" value="" style="whiteSpace=wrap;html=1;aspect=fixed;" parent="1" vertex="1">
          <mxGeometry x="250" width="370" height="370" as="geometry" />
        </mxCell>
        <mxCell id="fuXMZ4NcPsIUFkVtj4bJ-9" style="edgeStyle=orthogonalEdgeStyle;rounded=0;orthogonalLoop=1;jettySize=auto;html=1;" parent="1" source="fuXMZ4NcPsIUFkVtj4bJ-4" target="fuXMZ4NcPsIUFkVtj4bJ-7" edge="1">
          <mxGeometry relative="1" as="geometry" />
        </mxCell>
        <mxCell id="fuXMZ4NcPsIUFkVtj4bJ-4" value="Login" style="rounded=0;whiteSpace=wrap;html=1;" parent="1" vertex="1">
          <mxGeometry x="290" y="160" width="120" height="60" as="geometry" />
        </mxCell>
        <mxCell id="fuXMZ4NcPsIUFkVtj4bJ-5" value="Signup" style="rounded=0;whiteSpace=wrap;html=1;" parent="1" vertex="1">
          <mxGeometry x="460" y="160" width="120" height="60" as="geometry" />
        </mxCell>
        <mxCell id="fuXMZ4NcPsIUFkVtj4bJ-7" value="" style="whiteSpace=wrap;html=1;aspect=fixed;" parent="1" vertex="1">
          <mxGeometry y="450" width="370" height="370" as="geometry" />
        </mxCell>
        <mxCell id="fuXMZ4NcPsIUFkVtj4bJ-10" value="Username (Entry)" style="rounded=0;whiteSpace=wrap;html=1;" parent="1" vertex="1">
          <mxGeometry x="125" y="550" width="120" height="30" as="geometry" />
        </mxCell>
        <mxCell id="fuXMZ4NcPsIUFkVtj4bJ-13" value="Password (Entry)" style="rounded=0;whiteSpace=wrap;html=1;" parent="1" vertex="1">
          <mxGeometry x="125" y="620" width="120" height="30" as="geometry" />
        </mxCell>
        <mxCell id="rRSfC-0G60dBEqh1zXZG-5" style="edgeStyle=orthogonalEdgeStyle;rounded=0;orthogonalLoop=1;jettySize=auto;html=1;entryX=0;entryY=0.5;entryDx=0;entryDy=0;" parent="1" source="fuXMZ4NcPsIUFkVtj4bJ-15" target="hUXfC_12EaR1_YK_ajq_-2" edge="1">
          <mxGeometry relative="1" as="geometry" />
        </mxCell>
        <mxCell id="fuXMZ4NcPsIUFkVtj4bJ-17" value="Login" style="rounded=0;whiteSpace=wrap;html=1;" parent="1" vertex="1">
          <mxGeometry x="40" y="740" width="120" height="30" as="geometry" />
        </mxCell>
        <mxCell id="fuXMZ4NcPsIUFkVtj4bJ-18" value="Error label (hidden)" style="text;html=1;align=center;verticalAlign=middle;whiteSpace=wrap;rounded=0;fillColor=light-dark(#A20025,#FF0000);fontColor=#ffffff;strokeColor=#6F0000;" parent="1" vertex="1">
          <mxGeometry x="135" y="670" width="100" height="30" as="geometry" />
        </mxCell>
        <mxCell id="hUXfC_12EaR1_YK_ajq_-2" value="" style="whiteSpace=wrap;html=1;aspect=fixed;" parent="1" vertex="1">
          <mxGeometry x="250" y="940" width="370" height="370" as="geometry" />
        </mxCell>
        <mxCell id="hUXfC_12EaR1_YK_ajq_-3" value="Menu Bar" style="rounded=0;whiteSpace=wrap;html=1;" parent="1" vertex="1">
          <mxGeometry x="250" y="940" width="365" height="50" as="geometry" />
        </mxCell>
        <mxCell id="hUXfC_12EaR1_YK_ajq_-4" value="Play Game" style="rounded=0;whiteSpace=wrap;html=1;" parent="1" vertex="1">
          <mxGeometry x="287" y="1080" width="118" height="30" as="geometry" />
        </mxCell>
        <mxCell id="hUXfC_12EaR1_YK_ajq_-5" value="Manage Account" style="rounded=0;whiteSpace=wrap;html=1;" parent="1" vertex="1">
          <mxGeometry x="460" y="1080" width="120" height="30" as="geometry" />
        </mxCell>
        <mxCell id="h8AHRkeDJBW4sta5MbmH-1" style="edgeStyle=orthogonalEdgeStyle;rounded=0;orthogonalLoop=1;jettySize=auto;html=1;entryX=0.438;entryY=0.995;entryDx=0;entryDy=0;entryPerimeter=0;" edge="1" parent="1" source="hUXfC_12EaR1_YK_ajq_-6" target="fuXMZ4NcPsIUFkVtj4bJ-1">
          <mxGeometry relative="1" as="geometry">
            <mxPoint x="420" y="680" as="targetPoint" />
          </mxGeometry>
        </mxCell>
        <mxCell id="hUXfC_12EaR1_YK_ajq_-6" value="Logout" style="rounded=0;whiteSpace=wrap;html=1;" parent="1" vertex="1">
          <mxGeometry x="373.5" y="1150" width="118" height="30" as="geometry" />
        </mxCell>
        <mxCell id="rRSfC-0G60dBEqh1zXZG-3" value="Back" style="rounded=0;whiteSpace=wrap;html=1;" parent="1" vertex="1">
          <mxGeometry x="195" y="740" width="120" height="30" as="geometry" />
        </mxCell>
        <mxCell id="rRSfC-0G60dBEqh1zXZG-6" style="edgeStyle=orthogonalEdgeStyle;rounded=0;orthogonalLoop=1;jettySize=auto;html=1;entryX=0.443;entryY=0.995;entryDx=0;entryDy=0;entryPerimeter=0;" parent="1" source="rRSfC-0G60dBEqh1zXZG-3" target="fuXMZ4NcPsIUFkVtj4bJ-1" edge="1">
          <mxGeometry relative="1" as="geometry" />
        </mxCell>
        <mxCell id="rRSfC-0G60dBEqh1zXZG-8" value="" style="whiteSpace=wrap;html=1;aspect=fixed;" parent="1" vertex="1">
          <mxGeometry x="-520" y="450" width="370" height="370" as="geometry" />
        </mxCell>
        <mxCell id="rRSfC-0G60dBEqh1zXZG-9" style="edgeStyle=orthogonalEdgeStyle;rounded=0;orthogonalLoop=1;jettySize=auto;html=1;entryX=0.992;entryY=0.476;entryDx=0;entryDy=0;entryPerimeter=0;" parent="1" source="fuXMZ4NcPsIUFkVtj4bJ-15" target="rRSfC-0G60dBEqh1zXZG-8" edge="1">
          <mxGeometry relative="1" as="geometry" />
        </mxCell>
        <mxCell id="rRSfC-0G60dBEqh1zXZG-10" value="Back" style="rounded=0;whiteSpace=wrap;html=1;" parent="1" vertex="1">
          <mxGeometry x="-320" y="740" width="110" height="30" as="geometry" />
        </mxCell>
        <mxCell id="rRSfC-0G60dBEqh1zXZG-11" style="edgeStyle=orthogonalEdgeStyle;rounded=0;orthogonalLoop=1;jettySize=auto;html=1;entryX=-0.005;entryY=0.522;entryDx=0;entryDy=0;entryPerimeter=0;" parent="1" source="rRSfC-0G60dBEqh1zXZG-10" target="fuXMZ4NcPsIUFkVtj4bJ-7" edge="1">
          <mxGeometry relative="1" as="geometry" />
        </mxCell>
        <mxCell id="rRSfC-0G60dBEqh1zXZG-13" value="Validate" style="rounded=0;whiteSpace=wrap;html=1;" parent="1" vertex="1">
          <mxGeometry x="-480" y="740" width="110" height="30" as="geometry" />
        </mxCell>
        <mxCell id="rRSfC-0G60dBEqh1zXZG-14" value="email" style="rounded=0;whiteSpace=wrap;html=1;fillColor=#1ba1e2;fontColor=#ffffff;strokeColor=#006EAF;" parent="1" vertex="1">
          <mxGeometry x="-395" y="540" width="120" height="30" as="geometry" />
        </mxCell>
        <mxCell id="rRSfC-0G60dBEqh1zXZG-15" value="Security Questions 1" style="rounded=0;whiteSpace=wrap;html=1;fillColor=#1ba1e2;fontColor=#ffffff;strokeColor=#006EAF;" parent="1" vertex="1">
          <mxGeometry x="-395" y="590" width="120" height="30" as="geometry" />
        </mxCell>
        <mxCell id="rRSfC-0G60dBEqh1zXZG-16" value="Security Questions 2" style="rounded=0;whiteSpace=wrap;html=1;fillColor=#1ba1e2;fontColor=#ffffff;strokeColor=#006EAF;" parent="1" vertex="1">
          <mxGeometry x="-395" y="640" width="120" height="30" as="geometry" />
        </mxCell>
        <mxCell id="rRSfC-0G60dBEqh1zXZG-18" value="Error Label" style="rounded=0;whiteSpace=wrap;html=1;fillColor=light-dark(#A20025,#FF0000);" parent="1" vertex="1">
          <mxGeometry x="-395" y="490" width="120" height="30" as="geometry" />
        </mxCell>
        <mxCell id="rRSfC-0G60dBEqh1zXZG-19" value="&lt;h1 style=&quot;margin-top: 0px;&quot;&gt;Key&lt;/h1&gt;&lt;p&gt;&lt;span style=&quot;color: rgba(0, 0, 0, 0);&quot;&gt;Blue - Dynamic element (will appear or disappear due to action&lt;/span&gt;&lt;/p&gt;&lt;div&gt;&lt;br&gt;&lt;/div&gt;&lt;div&gt;Red - Error Label&lt;/div&gt;" style="text;html=1;whiteSpace=wrap;overflow=hidden;rounded=0;" parent="1" vertex="1">
          <mxGeometry x="-210" width="180" height="220" as="geometry" />
        </mxCell>
        <mxCell id="PwP7eNhk208j3xQuzL3b-1" value="" style="edgeStyle=orthogonalEdgeStyle;rounded=0;orthogonalLoop=1;jettySize=auto;html=1;entryX=0;entryY=0.5;entryDx=0;entryDy=0;" parent="1" source="fuXMZ4NcPsIUFkVtj4bJ-17" target="fuXMZ4NcPsIUFkVtj4bJ-15" edge="1">
          <mxGeometry relative="1" as="geometry">
            <mxPoint x="160" y="755" as="sourcePoint" />
            <mxPoint x="215" y="1115" as="targetPoint" />
          </mxGeometry>
        </mxCell>
        <mxCell id="fuXMZ4NcPsIUFkVtj4bJ-15" value="Reset Password (Button)" style="text;html=1;align=center;verticalAlign=middle;whiteSpace=wrap;rounded=0;" parent="1" vertex="1">
          <mxGeometry x="110" y="780" width="175" height="30" as="geometry" />
        </mxCell>
        <mxCell id="h8AHRkeDJBW4sta5MbmH-5" value="" style="whiteSpace=wrap;html=1;aspect=fixed;" vertex="1" parent="1">
          <mxGeometry x="250" y="1510" width="370" height="370" as="geometry" />
        </mxCell>
        <mxCell id="h8AHRkeDJBW4sta5MbmH-6" style="edgeStyle=orthogonalEdgeStyle;rounded=0;orthogonalLoop=1;jettySize=auto;html=1;entryX=0.522;entryY=0.008;entryDx=0;entryDy=0;entryPerimeter=0;" edge="1" parent="1">
          <mxGeometry relative="1" as="geometry">
            <mxPoint x="328" y="1110" as="sourcePoint" />
            <mxPoint x="425.1399999999999" y="1512.96" as="targetPoint" />
          </mxGeometry>
        </mxCell>
        <mxCell id="h8AHRkeDJBW4sta5MbmH-28" value="" style="whiteSpace=wrap;html=1;aspect=fixed;" vertex="1" parent="1">
          <mxGeometry x="287" y="1590" width="80" height="80" as="geometry" />
        </mxCell>
        <mxCell id="h8AHRkeDJBW4sta5MbmH-29" value="" style="whiteSpace=wrap;html=1;aspect=fixed;" vertex="1" parent="1">
          <mxGeometry x="395" y="1590" width="80" height="80" as="geometry" />
        </mxCell>
        <mxCell id="h8AHRkeDJBW4sta5MbmH-30" value="" style="whiteSpace=wrap;html=1;aspect=fixed;" vertex="1" parent="1">
          <mxGeometry x="510" y="1590" width="80" height="80" as="geometry" />
        </mxCell>
        <mxCell id="h8AHRkeDJBW4sta5MbmH-31" value="" style="whiteSpace=wrap;html=1;aspect=fixed;" vertex="1" parent="1">
          <mxGeometry x="290" y="1730" width="80" height="80" as="geometry" />
        </mxCell>
        <mxCell id="h8AHRkeDJBW4sta5MbmH-32" value="" style="whiteSpace=wrap;html=1;aspect=fixed;" vertex="1" parent="1">
          <mxGeometry x="398" y="1730" width="80" height="80" as="geometry" />
        </mxCell>
        <mxCell id="h8AHRkeDJBW4sta5MbmH-33" value="" style="whiteSpace=wrap;html=1;aspect=fixed;" vertex="1" parent="1">
          <mxGeometry x="513" y="1730" width="80" height="80" as="geometry" />
        </mxCell>
        <mxCell id="h8AHRkeDJBW4sta5MbmH-34" value="Slots" style="rounded=0;whiteSpace=wrap;html=1;" vertex="1" parent="1">
          <mxGeometry x="290" y="1710" width="80" height="20" as="geometry" />
        </mxCell>
        <mxCell id="h8AHRkeDJBW4sta5MbmH-35" value="TicTacToe" style="rounded=0;whiteSpace=wrap;html=1;" vertex="1" parent="1">
          <mxGeometry x="398" y="1710" width="82" height="20" as="geometry" />
        </mxCell>
        <mxCell id="h8AHRkeDJBW4sta5MbmH-36" value="Trivia" style="rounded=0;whiteSpace=wrap;html=1;" vertex="1" parent="1">
          <mxGeometry x="514.5" y="1710" width="78.5" height="20" as="geometry" />
        </mxCell>
        <mxCell id="h8AHRkeDJBW4sta5MbmH-40" value="CoinFlip" style="rounded=0;whiteSpace=wrap;html=1;" vertex="1" parent="1">
          <mxGeometry x="286.5" y="1570" width="80" height="20" as="geometry" />
        </mxCell>
        <mxCell id="h8AHRkeDJBW4sta5MbmH-41" value="NumberGuess" style="rounded=0;whiteSpace=wrap;html=1;" vertex="1" parent="1">
          <mxGeometry x="394.5" y="1570" width="82" height="20" as="geometry" />
        </mxCell>
        <mxCell id="h8AHRkeDJBW4sta5MbmH-42" value="RPS" style="rounded=0;whiteSpace=wrap;html=1;" vertex="1" parent="1">
          <mxGeometry x="511" y="1570" width="78.5" height="20" as="geometry" />
        </mxCell>
        <mxCell id="h8AHRkeDJBW4sta5MbmH-43" value="Choose A Game" style="rounded=0;whiteSpace=wrap;html=1;" vertex="1" parent="1">
          <mxGeometry x="379" y="1520" width="121" height="30" as="geometry" />
        </mxCell>
      </root>
    </mxGraphModel>
  </diagram>
</mxfile>
